<svg version="1.0" xmlns="http://www.w3.org/2000/svg"
 width="700.000000pt" height="700.000000pt" viewBox="0 0 700.000000 700.000000"
 preserveAspectRatio="xMidYMid meet" fill="#fff">

<g transform="translate(0.000000,700.000000) scale(0.100000,-0.100000)"
fill="#fff">
<path d="M2097 5980 c-109 -19 -205 -99 -249 -208 l-23 -57 0 -1725 0 -1725
21 -46 c47 -102 135 -170 250 -194 101 -22 2705 -22 2806 -1 80 17 116 35 169
83 70 63 89 128 47 157 -36 26 -53 19 -102 -38 -85 -99 56 -91 -1516 -91
-1303 0 -1377 1 -1422 18 -57 22 -113 82 -128 135 -7 28 -9 557 -8 1728 l3
1689 22 40 c24 46 54 75 103 101 31 17 65 19 313 22 l277 4 0 -716 c0 -703 0
-716 20 -736 11 -11 28 -20 38 -20 9 0 60 29 113 64 l96 65 96 -65 c115 -76
138 -80 166 -27 8 16 11 215 11 728 l0 706 843 -3 842 -3 48 -23 c55 -28 100
-78 116 -131 8 -28 11 -442 11 -1535 l0 -1496 -1438 -2 -1438 -3 -36 -24 c-72
-49 -102 -136 -84 -236 8 -43 56 -100 107 -126 37 -19 71 -19 1327 -19 1236 0
1290 1 1305 18 23 25 21 58 -3 82 -20 20 -33 20 -1298 20 l-1279 0 -21 23
c-29 31 -30 99 -2 127 20 20 33 20 1471 20 1464 0 1479 0 1501 34 4 6 8 705 8
1552 0 1517 0 1543 -20 1607 -36 118 -137 201 -274 226 -71 13 -2712 14 -2789
1z m981 -757 c1 -354 -1 -643 -5 -643 -5 0 -35 18 -68 40 -33 22 -67 40 -76
40 -9 0 -44 -18 -78 -40 -34 -22 -64 -40 -66 -40 -3 0 -5 290 -5 645 l0 646
148 -3 147 -3 3 -642z"/>
<path d="M2220 5443 c-41 -14 -40 9 -40 -1168 0 -1084 1 -1133 18 -1148 24
-22 65 -21 85 1 16 17 17 111 17 1148 0 889 -3 1134 -12 1146 -15 19 -47 28
-68 21z"/>
</g>
</svg>
