<?xml version="1.0" standalone="no"?>
<!DOCTYPE svg PUBLIC "-//W3C//DTD SVG 20010904//EN"
 "http://www.w3.org/TR/2001/REC-SVG-20010904/DTD/svg10.dtd">
<svg version="1.0" xmlns="http://www.w3.org/2000/svg"
 width="700.000000pt" height="700.000000pt" viewBox="0 0 700.000000 700.000000"
 preserveAspectRatio="xMidYMid meet">

<g transform="translate(0.000000,700.000000) scale(0.100000,-0.100000)"
fill="#000000" stroke="none">
<path d="M1794 6081 c-11 -5 -33 -24 -48 -41 l-27 -33 3 -303 3 -304 33 -32
c28 -28 39 -33 82 -33 43 0 54 5 82 33 l33 32 0 310 0 310 -31 31 c-33 33 -91
46 -130 30z"/>
<path d="M2848 6074 c-55 -29 -58 -46 -58 -364 0 -320 3 -335 60 -365 40 -20
79 -19 118 5 58 36 62 59 62 360 0 301 -4 324 -62 360 -39 23 -82 25 -120 4z"/>
<path d="M3921 6077 c-13 -6 -34 -25 -45 -40 -20 -27 -21 -42 -24 -312 -3
-317 0 -338 60 -375 59 -36 133 -18 163 40 22 43 22 597 0 640 -27 53 -100 75
-154 47z"/>
<path d="M4995 6081 c-11 -5 -31 -21 -45 -36 l-25 -27 0 -309 0 -309 33 -32
c28 -28 39 -33 82 -33 43 0 54 5 82 33 l33 32 0 310 0 310 -31 31 c-33 33 -92
46 -129 30z"/>
<path d="M1431 5814 c-30 -8 -77 -27 -105 -42 -65 -34 -174 -142 -208 -208
-61 -113 -58 -35 -58 -1594 0 -1559 -3 -1481 58 -1594 34 -65 143 -174 208
-208 115 -62 -16 -58 2114 -58 2130 0 1999 -4 2114 58 65 34 174 143 208 208
61 113 58 35 58 1594 0 1249 -2 1433 -15 1485 -50 190 -223 345 -414 371 l-51
7 0 -120 0 -120 47 -7 c67 -9 127 -48 160 -104 l28 -47 3 -1445 c3 -1604 7
-1505 -63 -1575 -71 -70 86 -65 -2095 -63 l-1965 3 -47 28 c-31 18 -57 44 -75
75 l-28 47 0 1465 0 1465 28 47 c33 56 93 95 160 104 l47 7 0 118 0 119 -27
-1 c-16 0 -52 -7 -82 -15z"/>
<path d="M2170 5710 l0 -120 200 0 200 0 0 120 0 120 -200 0 -200 0 0 -120z"/>
<path d="M3240 5710 l0 -120 200 0 200 0 0 120 0 120 -200 0 -200 0 0 -120z"/>
<path d="M4310 5710 l0 -120 200 0 200 0 0 120 0 120 -200 0 -200 0 0 -120z"/>
<path d="M2540 4530 l0 -120 195 0 196 0 -3 118 -3 117 -192 3 -193 2 0 -120z"/>
<path d="M3250 4530 l0 -120 190 0 190 0 0 120 0 120 -190 0 -190 0 0 -120z"/>
<path d="M3957 4643 c-4 -3 -7 -57 -7 -120 l0 -113 195 0 195 0 0 120 0 120
-188 0 c-104 0 -192 -3 -195 -7z"/>
<path d="M4670 4530 l0 -120 195 0 196 0 -3 118 -3 117 -192 3 -193 2 0 -120z"/>
<path d="M1820 4000 l0 -120 195 0 195 0 0 120 0 120 -195 0 -195 0 0 -120z"/>
<path d="M2540 4000 l0 -120 195 0 195 0 0 120 0 120 -195 0 -195 0 0 -120z"/>
<path d="M3250 4000 l0 -120 190 0 190 0 0 120 0 120 -190 0 -190 0 0 -120z"/>
<path d="M3950 4000 l0 -120 195 0 195 0 0 120 0 120 -195 0 -195 0 0 -120z"/>
<path d="M4670 4000 l0 -120 195 0 195 0 0 120 0 120 -195 0 -195 0 0 -120z"/>
<path d="M1822 3473 l3 -118 193 -3 192 -2 0 120 0 120 -195 0 -196 0 3 -117z"/>
<path d="M2540 3470 l0 -120 193 2 192 3 3 118 3 117 -196 0 -195 0 0 -120z"/>
<path d="M3250 3470 l0 -120 190 0 190 0 0 120 0 120 -190 0 -190 0 0 -120z"/>
<path d="M3952 3473 l3 -118 193 -3 192 -2 0 120 0 120 -195 0 -196 0 3 -117z"/>
<path d="M4670 3470 l0 -120 193 2 192 3 3 118 3 117 -196 0 -195 0 0 -120z"/>
<path d="M1827 3053 c-4 -3 -7 -57 -7 -120 l0 -113 195 0 195 0 0 120 0 120
-188 0 c-104 0 -192 -3 -195 -7z"/>
<path d="M2540 2940 l0 -120 195 0 196 0 -3 118 -3 117 -192 3 -193 2 0 -120z"/>
<path d="M3250 2940 l0 -120 190 0 190 0 0 120 0 120 -190 0 -190 0 0 -120z"/>
</g>
</svg>
