<?xml version="1.0" standalone="no"?>
<!DOCTYPE svg PUBLIC "-//W3C//DTD SVG 20010904//EN"
 "http://www.w3.org/TR/2001/REC-SVG-20010904/DTD/svg10.dtd">
<svg version="1.0" xmlns="http://www.w3.org/2000/svg"
 width="700.000000pt" height="700.000000pt" viewBox="0 0 700.000000 700.000000"
 preserveAspectRatio="xMidYMid meet">

<g transform="translate(0.000000,700.000000) scale(0.100000,-0.100000)"
fill="#000000" stroke="none">
<path d="M3303 6523 c-48 -10 -53 -33 -53 -244 0 -183 1 -198 21 -223 23 -30
45 -33 77 -10 21 15 22 21 22 185 l0 169 130 0 130 0 0 -169 c0 -164 1 -170
22 -185 32 -23 54 -20 77 10 20 25 21 40 21 224 0 266 20 245 -232 247 -106 0
-203 -1 -215 -4z"/>
<path d="M3005 5945 c-25 -24 -25 -25 -25 -225 0 -200 0 -201 25 -225 29 -30
45 -31 74 -7 20 16 21 28 23 187 l3 170 395 0 395 0 3 -170 c2 -159 3 -171 23
-187 29 -24 45 -23 74 7 25 24 25 25 25 225 0 200 0 201 -25 225 l-24 25 -471
0 -471 0 -24 -25z"/>
<path d="M2735 5376 c-17 -7 -43 -28 -58 -45 l-27 -33 0 -1693 c0 -1562 1
-1694 17 -1706 24 -21 1642 -21 1666 0 16 12 17 144 17 1706 l0 1693 -27 33
c-52 61 -23 59 -825 59 -587 -1 -739 -3 -763 -14z m1493 -1743 l2 -1633 -730
0 -730 0 0 1628 c0 896 3 1632 7 1635 3 4 331 6 727 5 l721 -3 3 -1632z"/>
<path d="M2940 4830 c-24 -24 -25 -48 -4 -78 l15 -22 543 0 c513 0 544 1 559
18 23 25 21 58 -3 82 -20 20 -33 20 -555 20 -522 0 -535 0 -555 -20z"/>
<path d="M2934 4195 c-19 -29 -11 -60 20 -81 20 -12 96 -14 555 -12 514 3 533
4 547 22 19 27 18 60 -4 79 -17 15 -70 17 -560 17 l-542 0 -16 -25z"/>
<path d="M2940 3580 c-11 -11 -20 -29 -20 -40 0 -11 9 -29 20 -40 20 -20 33
-20 558 -20 509 0 540 1 555 18 24 26 21 68 -5 86 -20 14 -89 16 -555 16 -520
0 -534 -1 -553 -20z"/>
<path d="M2945 2956 c-29 -29 -31 -43 -9 -74 l15 -22 543 0 c513 0 544 1 559
18 21 23 22 52 3 78 -14 18 -33 19 -550 22 l-536 3 -25 -25z"/>
<path d="M2936 2328 c-21 -30 -20 -54 4 -78 20 -20 33 -20 555 -20 522 0 535
0 555 20 25 25 26 62 2 83 -17 15 -70 17 -560 17 l-541 0 -15 -22z"/>
<path d="M1630 4720 c-19 -19 -20 -33 -20 -220 0 -187 1 -201 20 -220 24 -24
48 -25 78 -4 21 15 22 21 22 180 l0 164 214 0 215 0 3 -166 c3 -150 5 -167 22
-180 27 -19 60 -18 79 4 15 16 17 47 17 225 0 201 0 206 -22 221 -19 14 -66
16 -315 16 -280 0 -294 -1 -313 -20z"/>
<path d="M1511 4192 c-19 -9 -44 -30 -55 -45 -21 -28 -21 -34 -24 -1127 l-2
-1098 27 -21 c26 -21 31 -22 489 -19 429 3 465 4 481 21 17 17 18 75 18 1110
0 1070 0 1093 -20 1125 -11 18 -38 41 -60 52 -39 19 -63 20 -431 20 -351 0
-392 -2 -423 -18z m807 -114 c8 -8 12 -66 12 -195 l0 -182 -321 -3 c-304 -3
-321 -4 -335 -22 -16 -23 -18 -54 -4 -76 8 -13 60 -16 332 -20 l323 -5 3 -162
2 -163 -313 0 c-345 0 -357 -2 -357 -59 0 -59 5 -60 351 -63 l314 -3 3 -162 2
-163 -316 0 c-281 0 -320 -2 -336 -17 -22 -20 -23 -61 -1 -85 15 -17 39 -18
335 -18 l318 0 -2 -162 -3 -163 -314 -3 c-346 -3 -351 -4 -351 -63 0 -57 12
-59 358 -59 l313 0 -3 -112 -3 -113 -387 -3 -388 -2 0 1038 c0 571 3 1042 7
1045 3 4 173 7 378 7 275 0 374 -3 383 -12z"/>
<path d="M4603 3611 c-73 -45 -68 16 -71 -877 -2 -779 -2 -802 17 -825 l19
-24 469 -3 c464 -3 470 -2 496 18 l27 21 0 800 c0 867 3 825 -55 879 l-27 25
-421 3 c-405 2 -423 1 -454 -17z m835 -859 l2 -752 -392 2 -393 3 -3 113 -3
112 313 0 c268 0 317 2 336 16 26 18 29 60 5 86 -15 17 -39 18 -335 18 l-319
0 3 143 3 142 323 5 c351 5 342 4 342 62 0 56 -13 58 -357 58 l-313 0 0 140 0
140 313 0 c344 0 357 2 357 58 0 58 9 57 -342 62 l-323 5 -3 160 c-1 87 0 165
2 172 4 11 82 13 393 11 l388 -3 3 -753z"/>
<path d="M1062 1590 c-35 -15 -48 -54 -28 -85 l16 -25 2450 0 2450 0 16 25
c21 32 7 71 -32 85 -33 13 -4840 12 -4872 0z"/>
</g>
</svg>
