<?xml version="1.0" standalone="no"?>
<!DOCTYPE svg PUBLIC "-//W3C//DTD SVG 20010904//EN"
 "http://www.w3.org/TR/2001/REC-SVG-20010904/DTD/svg10.dtd">
<svg version="1.0" xmlns="http://www.w3.org/2000/svg"
 width="64.000000pt" height="64.000000pt" viewBox="0 0 64.000000 64.000000"
 preserveAspectRatio="xMidYMid meet">

<g transform="translate(0.000000,64.000000) scale(0.100000,-0.100000)"
fill="#000000" stroke="none">
<path d="M12 612 c-9 -7 -12 -63 -10 -248 l3 -239 123 -3 122 -3 0 -39 0 -40
-56 0 c-34 0 -53 -4 -49 -10 8 -13 342 -13 350 0 4 6 -15 10 -49 10 l-56 0 0
40 0 39 123 3 122 3 3 239 c2 185 -1 241 -10 248 -17 10 -599 10 -616 0z m608
-242 l0 -230 -300 0 -300 0 0 230 0 230 300 0 300 0 0 -230z m-250 -290 l0
-40 -50 0 -50 0 0 40 0 40 50 0 50 0 0 -40z"/>
<path d="M330 390 l0 -131 38 3 37 3 0 125 0 125 -37 3 -38 3 0 -131z m50 0
c0 -91 -3 -110 -15 -110 -12 0 -15 19 -15 110 0 91 3 110 15 110 12 0 15 -19
15 -110z"/>
<path d="M241 467 c-8 -10 -11 -46 -9 -108 l3 -94 38 -3 38 -3 -3 108 c-3 108
-3 108 -29 111 -14 2 -31 -4 -38 -11z m49 -102 c0 -69 -3 -85 -15 -85 -12 0
-15 16 -15 85 0 69 3 85 15 85 12 0 15 -16 15 -85z"/>
<path d="M147 423 c-4 -3 -7 -42 -7 -85 l0 -78 35 0 35 0 0 85 0 85 -28 0
c-16 0 -32 -3 -35 -7z m43 -78 c0 -51 -3 -65 -15 -65 -12 0 -15 14 -15 65 0
51 3 65 15 65 12 0 15 -14 15 -65z"/>
<path d="M430 320 l0 -60 35 0 35 0 0 60 0 60 -35 0 -35 0 0 -60z m50 0 c0
-29 -4 -40 -15 -40 -11 0 -15 11 -15 40 0 29 4 40 15 40 11 0 15 -11 15 -40z"/>
<path d="M45 210 c8 -14 542 -14 550 0 4 7 -90 10 -275 10 -185 0 -279 -3
-275 -10z"/>
</g>
</svg>
