<?xml version="1.0" standalone="no"?>
<!DOCTYPE svg PUBLIC "-//W3C//DTD SVG 20010904//EN"
 "http://www.w3.org/TR/2001/REC-SVG-20010904/DTD/svg10.dtd">
<svg version="1.0" xmlns="http://www.w3.org/2000/svg"
 width="700.000000pt" height="700.000000pt" viewBox="0 0 700.000000 700.000000"
 preserveAspectRatio="xMidYMid meet">

<g transform="translate(0.000000,700.000000) scale(0.100000,-0.100000)"
fill="#000000" stroke="none">
<path d="M2028 6191 c-60 -12 -129 -61 -163 -115 l-30 -49 -3 -2011 c-2 -1349
0 -2023 7 -2046 15 -52 77 -119 135 -146 l51 -24 1500 0 1500 0 50 24 c59 27
106 77 129 137 15 40 16 158 14 1369 l-3 1325 -27 55 c-22 45 -142 170 -690
717 -365 364 -682 677 -706 694 -23 17 -66 41 -95 53 -52 21 -59 21 -842 23
-434 0 -807 -2 -827 -6z m1640 -131 c49 -22 94 -67 125 -125 21 -39 22 -52 27
-460 5 -405 6 -422 27 -467 30 -66 69 -114 120 -149 91 -63 88 -63 554 -69
l426 -5 49 -30 c30 -19 60 -49 79 -79 l30 -49 0 -1303 c0 -1300 0 -1303 -21
-1330 -11 -15 -33 -37 -48 -48 -27 -21 -31 -21 -1494 -24 -1629 -3 -1531 -7
-1573 62 -18 30 -19 79 -19 2023 l0 1991 27 32 c14 18 36 36 47 40 12 5 377 9
811 9 761 1 792 0 833 -19z m1090 -1148 c-46 -2 -211 -2 -368 0 -272 3 -287 4
-326 25 -56 30 -109 94 -123 148 -7 28 -11 171 -11 392 l0 348 455 -455 455
-455 -82 -3z"/>
<path d="M2420 5710 c-24 -24 -25 -48 -4 -78 l15 -22 458 0 c431 0 459 1 474
18 23 25 21 58 -3 82 -19 19 -33 20 -470 20 -437 0 -451 -1 -470 -20z"/>
<path d="M2433 5380 c-30 -12 -39 -54 -19 -85 l16 -25 460 0 c404 0 460 2 474
16 20 19 20 54 2 80 -14 18 -32 19 -463 21 -251 1 -458 -2 -470 -7z"/>
<path d="M2420 5030 c-11 -11 -20 -29 -20 -40 0 -11 9 -29 20 -40 19 -19 33
-20 473 -20 427 0 455 1 470 18 22 24 21 65 -1 85 -17 15 -64 17 -470 17 -439
0 -453 -1 -472 -20z"/>
<path d="M2416 4408 c-21 -30 -20 -54 4 -78 20 -20 33 -20 1103 -20 964 0
1085 2 1105 16 27 19 29 64 4 87 -17 16 -108 17 -1110 17 l-1091 0 -15 -22z"/>
<path d="M2416 4078 c-21 -30 -20 -54 4 -78 20 -20 33 -20 1103 -20 964 0
1085 2 1105 16 27 19 29 64 4 87 -17 16 -108 17 -1110 17 l-1091 0 -15 -22z"/>
<path d="M2416 3748 c-21 -30 -20 -54 4 -78 20 -20 33 -20 1103 -20 964 0
1085 2 1105 16 27 19 29 64 4 87 -17 16 -108 17 -1110 17 l-1091 0 -15 -22z"/>
<path d="M2416 3418 c-21 -30 -20 -54 4 -78 20 -20 33 -20 1103 -20 964 0
1085 2 1105 16 27 19 29 64 4 87 -17 16 -108 17 -1110 17 l-1091 0 -15 -22z"/>
<path d="M2416 3088 c-21 -30 -20 -54 4 -78 20 -20 33 -20 1103 -20 964 0
1085 2 1105 16 27 19 29 64 4 87 -17 16 -108 17 -1110 17 l-1091 0 -15 -22z"/>
<path d="M2416 2758 c-21 -30 -20 -54 4 -78 20 -20 33 -20 1103 -20 964 0
1085 2 1105 16 27 19 29 64 4 87 -17 16 -108 17 -1110 17 l-1091 0 -15 -22z"/>
<path d="M2416 2428 c-21 -30 -20 -54 4 -78 20 -20 33 -20 1103 -20 964 0
1085 2 1105 16 27 19 29 64 4 87 -17 16 -108 17 -1110 17 l-1091 0 -15 -22z"/>
</g>
</svg>
