<?xml version="1.0" standalone="no"?>
<!DOCTYPE svg PUBLIC "-//W3C//DTD SVG 20010904//EN"
 "http://www.w3.org/TR/2001/REC-SVG-20010904/DTD/svg10.dtd">
<svg version="1.0" xmlns="http://www.w3.org/2000/svg"
 width="700.000000pt" height="600.000000pt" viewBox="0 0 700.000000 600.000000"
 preserveAspectRatio="xMidYMid meet">

<g transform="translate(0.000000,600.000000) scale(0.100000,-0.100000)"
fill="#000000" stroke="none">
<path d="M2722 5592 c-30 -3 -398 -143 -460 -174 -39 -20 -133 -129 -158 -183
-13 -27 -28 -73 -34 -102 -11 -49 -8 -64 60 -306 l71 -255 -137 -137 -137
-137 -244 62 c-205 53 -254 62 -301 57 -82 -7 -164 -42 -220 -92 -44 -40 -57
-62 -136 -245 -48 -111 -93 -228 -99 -261 -20 -112 26 -281 96 -346 18 -17
127 -82 243 -147 l211 -116 1 -213 0 -212 -206 -120 c-226 -132 -279 -176
-327 -271 -26 -51 -30 -70 -30 -144 0 -84 1 -87 84 -285 91 -217 126 -275 200
-330 136 -99 183 -100 508 -7 l242 69 88 -92 c48 -51 109 -110 135 -132 l47
-39 -60 -230 c-66 -253 -74 -330 -44 -419 44 -130 90 -167 341 -275 l198 -85
115 0 c110 0 119 2 181 32 36 17 75 42 87 55 12 13 78 124 146 247 l125 224
185 1 186 1 123 -210 c67 -116 140 -228 160 -251 71 -77 217 -133 299 -115 19
4 131 46 249 92 207 81 217 86 273 141 39 39 69 81 93 132 32 68 35 81 32 143
-3 43 -28 152 -67 293 l-63 225 140 141 140 140 198 -53 c296 -78 329 -84 405
-72 35 5 87 21 116 35 94 45 121 83 219 306 l88 203 4 97 c3 80 0 109 -18 162
-27 82 -68 138 -122 169 -24 13 -134 75 -245 137 l-203 112 0 194 0 194 45 27
c25 16 129 78 232 138 167 99 191 116 229 168 51 69 78 143 78 217 1 46 -13
91 -84 274 -85 219 -85 220 -150 286 -75 77 -157 121 -234 128 -41 3 -92 -7
-246 -51 -107 -30 -222 -63 -256 -72 l-61 -17 -133 134 -133 133 63 247 c56
222 62 254 58 321 -6 97 -47 188 -109 241 -58 50 -407 202 -496 216 -109 18
-252 -18 -325 -82 -15 -12 -70 -99 -122 -193 -52 -93 -109 -197 -128 -229
l-33 -59 -201 -1 -201 -1 -99 169 c-145 247 -167 280 -219 319 -74 57 -173 88
-253 79z m141 -149 c27 -15 58 -39 70 -53 12 -14 82 -128 156 -254 74 -125
142 -231 152 -234 10 -4 72 -3 137 2 74 5 165 5 239 -1 86 -7 123 -7 137 1 10
7 76 115 147 241 70 127 135 240 144 253 29 40 93 65 181 70 l80 4 200 -87
c109 -48 209 -97 221 -108 30 -26 63 -117 63 -169 0 -23 -29 -156 -65 -295
-36 -139 -65 -266 -65 -281 0 -22 17 -43 85 -104 47 -43 122 -118 167 -167 45
-50 89 -93 98 -96 9 -3 137 29 284 70 147 41 286 75 310 75 51 0 148 -58 188
-111 29 -39 166 -378 174 -431 8 -49 -19 -126 -61 -175 -23 -27 -103 -81 -252
-168 -120 -71 -229 -136 -243 -146 l-26 -17 1 -261 c1 -143 3 -263 6 -265 3
-3 117 -68 254 -145 137 -76 259 -148 270 -159 30 -29 55 -114 55 -186 -1 -54
-10 -83 -85 -256 -91 -211 -116 -245 -193 -268 -73 -22 -134 -13 -387 53 -137
36 -262 65 -280 65 -28 0 -42 -12 -115 -95 -45 -53 -122 -130 -171 -172 -49
-42 -92 -85 -94 -97 -3 -12 28 -140 70 -285 41 -146 75 -277 75 -291 0 -40
-56 -144 -98 -182 -47 -43 -386 -189 -453 -196 -57 -5 -133 25 -180 74 -19 19
-97 141 -174 272 l-140 237 -248 0 c-199 0 -251 -3 -260 -14 -7 -7 -73 -122
-148 -255 -132 -234 -138 -242 -185 -266 -37 -19 -67 -26 -129 -28 l-80 -3
-175 76 c-96 42 -190 84 -208 92 -43 20 -89 100 -97 168 -6 44 3 91 59 308 36
141 66 266 66 277 0 11 -17 34 -37 51 -21 18 -101 97 -179 176 -78 79 -146
143 -152 143 -7 0 -125 -32 -264 -72 -139 -39 -272 -73 -295 -76 -55 -5 -121
26 -184 87 -41 41 -54 66 -119 231 -83 210 -93 264 -63 331 11 24 32 58 46 75
14 17 127 90 249 162 123 73 230 136 237 141 13 8 15 56 15 286 1 189 -2 280
-10 286 -17 14 -436 249 -444 249 -19 0 -71 75 -85 122 -30 103 -23 138 70
355 65 152 92 205 119 230 34 31 116 63 164 63 14 0 142 -30 284 -67 195 -50
265 -64 282 -57 12 5 56 47 97 94 41 46 113 118 159 159 47 41 89 84 94 97 7
16 -10 90 -64 290 -41 148 -73 282 -72 298 4 44 61 143 103 179 33 28 201 101
394 169 61 22 111 17 178 -19z"/>
<path d="M3265 4294 c-475 -84 -874 -433 -1019 -891 -61 -196 -78 -441 -42
-627 102 -528 472 -915 1000 -1047 119 -30 360 -37 497 -15 185 31 362 101
524 207 101 67 276 241 342 339 275 412 307 909 87 1340 -188 369 -538 625
-948 695 -110 19 -332 18 -441 -1z m421 -119 c445 -76 815 -402 938 -827 40
-137 49 -204 49 -348 -1 -576 -402 -1056 -972 -1164 -105 -20 -311 -21 -423
-1 -492 85 -882 483 -964 980 -19 120 -14 329 11 445 72 329 312 642 611 797
98 51 233 98 340 117 106 19 301 19 410 1z"/>
</g>
</svg>
