<?xml version="1.0" standalone="no"?>
<!DOCTYPE svg PUBLIC "-//W3C//DTD SVG 20010904//EN"
 "http://www.w3.org/TR/2001/REC-SVG-20010904/DTD/svg10.dtd">
<svg version="1.0" xmlns="http://www.w3.org/2000/svg"
 width="700.000000pt" height="600.000000pt" viewBox="0 0 700.000000 600.000000"
 preserveAspectRatio="xMidYMid meet">

<g transform="translate(0.000000,600.000000) scale(0.100000,-0.100000)"
fill="#000000" stroke="none">
<path d="M3362 4425 c-166 -37 -324 -159 -395 -305 -55 -112 -67 -173 -67
-333 l0 -139 -42 -38 -43 -38 1 -83 c0 -135 68 -277 161 -343 31 -21 55 -52
84 -106 23 -41 57 -94 76 -118 22 -27 32 -47 26 -53 -5 -5 -144 -79 -309 -163
-164 -85 -318 -170 -341 -190 -23 -20 -54 -61 -68 -91 -33 -67 -41 -153 -51
-547 -7 -260 -6 -279 11 -298 18 -20 31 -20 1119 -20 606 0 1106 4 1112 8 30
20 32 50 18 407 -16 411 -20 428 -92 505 -41 43 -87 69 -357 205 -170 85 -316
159 -324 164 -11 7 -2 24 41 77 30 38 72 98 93 134 21 36 58 83 83 104 55 49
94 129 122 252 25 109 17 160 -31 205 l-29 27 0 134 c0 150 -15 229 -60 322
-65 137 -201 257 -345 305 -90 30 -295 39 -393 16z m355 -129 c121 -38 245
-158 294 -283 20 -51 23 -82 28 -254 6 -206 12 -229 54 -229 18 0 19 -4 14
-59 -11 -103 -58 -204 -102 -221 -13 -5 -30 -19 -38 -32 -7 -13 -36 -61 -63
-107 -62 -107 -162 -212 -235 -246 -44 -20 -70 -25 -135 -25 -46 0 -99 6 -123
15 -99 34 -192 133 -259 274 -26 53 -44 78 -66 90 -77 40 -143 147 -153 249
-5 48 -4 52 16 52 12 0 33 11 46 25 25 24 25 27 25 198 0 130 4 187 16 228 49
166 172 288 335 334 71 20 272 14 346 -9z m-192 -1571 c121 0 134 2 184 26
l53 27 132 -71 c72 -38 225 -116 340 -173 216 -107 259 -136 275 -188 10 -30
31 -432 31 -588 l0 -78 -1015 0 -1015 0 0 83 c0 45 5 190 11 322 11 255 19
296 68 340 13 11 171 96 352 190 l330 171 62 -31 c59 -29 67 -30 192 -30z"/>
<path d="M2290 4248 c-123 -43 -206 -107 -274 -210 -56 -86 -77 -164 -83 -315
-3 -73 -10 -133 -14 -133 -15 0 -49 -78 -49 -112 0 -48 37 -175 68 -231 14
-27 39 -57 54 -68 15 -11 46 -51 67 -88 22 -37 61 -91 86 -119 l45 -50 -144
-70 c-80 -39 -201 -96 -270 -128 -148 -67 -186 -96 -221 -168 -25 -52 -26 -59
-37 -376 l-12 -323 23 -18 c22 -18 47 -19 387 -19 351 0 365 1 384 20 25 25
26 62 2 83 -17 15 -55 17 -347 17 l-327 0 6 178 c15 431 9 411 153 478 53 25
189 89 302 144 l206 99 60 -21 c84 -28 207 -22 287 14 71 33 149 104 200 182
41 63 48 105 22 130 -33 34 -81 11 -114 -53 -24 -47 -105 -124 -155 -147 -105
-49 -232 -24 -321 63 -45 44 -108 133 -143 200 -12 24 -35 50 -52 58 -34 18
-60 69 -78 154 -12 58 -12 59 21 75 22 11 23 18 29 181 7 189 16 226 76 313
77 112 183 162 346 162 118 0 183 -16 248 -60 56 -38 93 -39 116 -4 15 23 15
29 2 52 -18 33 -78 74 -149 103 -45 18 -79 23 -195 26 -126 3 -147 1 -205 -19z"/>
<path d="M4330 4247 c-71 -26 -111 -47 -152 -86 -32 -28 -35 -47 -12 -79 21
-31 60 -28 113 8 65 44 130 60 248 60 163 0 269 -50 346 -162 60 -87 69 -124
76 -313 l6 -170 28 -13 c31 -15 31 -27 0 -127 -19 -60 -34 -84 -64 -99 -12 -6
-46 -51 -76 -101 -103 -171 -200 -245 -323 -245 -110 0 -192 53 -273 175 -18
27 -39 53 -48 58 -24 15 -64 0 -77 -29 -11 -22 -9 -33 15 -77 44 -81 135 -172
210 -209 88 -43 207 -51 298 -20 l60 21 215 -104 c118 -57 254 -121 302 -143
133 -61 128 -44 144 -479 l7 -173 -285 0 c-263 0 -286 -1 -301 -18 -23 -25
-21 -58 3 -82 19 -19 33 -20 339 -20 297 0 320 1 342 19 l23 18 -12 324 c-11
315 -12 324 -37 376 -35 70 -71 98 -220 166 -68 32 -190 90 -270 128 l-145 71
45 50 c25 28 64 82 86 119 21 37 52 77 67 88 15 11 40 41 54 68 31 56 68 183
68 231 0 34 -23 89 -45 107 -9 7 -15 54 -18 140 -3 97 -10 147 -27 195 -41
124 -130 231 -242 290 -89 47 -147 60 -283 60 -99 0 -131 -4 -185 -23z"/>
</g>
</svg>
